<?xml version="1.0" encoding="UTF-8"?>
<svg width="300" height="200" viewBox="0 0 300 200" xmlns="http://www.w3.org/2000/svg">
  <defs>
    <linearGradient id="gradient" x1="0%" y1="0%" x2="100%" y2="100%">
      <stop offset="0%" style="stop-color:#ec4899;stop-opacity:1" />
      <stop offset="100%" style="stop-color:#9333ea;stop-opacity:1" />
    </linearGradient>
  </defs>
  
  <!-- Background circle -->
  <circle cx="70" cy="100" r="60" fill="url(#gradient)" />
  
  <!-- Rabbit ears -->
  <ellipse cx="55" cy="75" rx="6" ry="18" fill="white" transform="rotate(-20 55 75)" />
  <ellipse cx="85" cy="75" rx="6" ry="18" fill="white" transform="rotate(20 85 75)" />
  
  <!-- Inner ears -->
  <ellipse cx="55" cy="75" rx="3" ry="12" fill="#fbb6ce" transform="rotate(-20 55 75)" />
  <ellipse cx="85" cy="75" rx="3" ry="12" fill="#fbb6ce" transform="rotate(20 85 75)" />
  
  <!-- Head -->
  <circle cx="70" cy="100" r="25" fill="white" />
  
  <!-- Eyes -->
  <circle cx="62" cy="95" r="3" fill="black" />
  <circle cx="78" cy="95" r="3" fill="black" />
  <circle cx="63" cy="93" r="1" fill="white" />
  <circle cx="79" cy="93" r="1" fill="white" />
  
  <!-- Nose -->
  <ellipse cx="70" cy="105" rx="2" ry="1.5" fill="#ec4899" />
  
  <!-- Mouth -->
  <path d="M 70 107 Q 66 110 64 107" stroke="black" stroke-width="1" fill="none" stroke-linecap="round" />
  <path d="M 70 107 Q 74 110 76 107" stroke="black" stroke-width="1" fill="none" stroke-linecap="round" />
  
  <!-- Whiskers -->
  <line x1="45" y1="100" x2="55" y2="99" stroke="black" stroke-width="0.8" stroke-linecap="round" />
  <line x1="45" y1="104" x2="55" y2="104" stroke="black" stroke-width="0.8" stroke-linecap="round" />
  <line x1="85" y1="99" x2="95" y2="100" stroke="black" stroke-width="0.8" stroke-linecap="round" />
  <line x1="85" y1="104" x2="95" y2="104" stroke="black" stroke-width="0.8" stroke-linecap="round" />
  
  <!-- Cheeks -->
  <circle cx="50" cy="108" r="6" fill="#fbb6ce" opacity="0.6" />
  <circle cx="90" cy="108" r="6" fill="#fbb6ce" opacity="0.6" />
  
  <!-- Text: LaaBoBo -->
  <text x="150" y="105" font-family="Arial, sans-serif" font-size="24" font-weight="bold" fill="url(#gradient)">LaaBoBo</text>
</svg>