<?xml version="1.0" encoding="UTF-8"?>
<svg width="200" height="200" viewBox="0 0 200 200" xmlns="http://www.w3.org/2000/svg">
  <defs>
    <linearGradient id="gradient" x1="0%" y1="0%" x2="100%" y2="100%">
      <stop offset="0%" style="stop-color:#ec4899;stop-opacity:1" />
      <stop offset="100%" style="stop-color:#9333ea;stop-opacity:1" />
    </linearGradient>
  </defs>
  
  <!-- Background circle -->
  <circle cx="100" cy="100" r="90" fill="url(#gradient)" />
  
  <!-- Rabbit ears -->
  <ellipse cx="75" cy="65" rx="8" ry="25" fill="white" transform="rotate(-20 75 65)" />
  <ellipse cx="125" cy="65" rx="8" ry="25" fill="white" transform="rotate(20 125 65)" />
  
  <!-- Inner ears -->
  <ellipse cx="75" cy="65" rx="4" ry="15" fill="#fbb6ce" transform="rotate(-20 75 65)" />
  <ellipse cx="125" cy="65" rx="4" ry="15" fill="#fbb6ce" transform="rotate(20 125 65)" />
  
  <!-- Head -->
  <circle cx="100" cy="100" r="35" fill="white" />
  
  <!-- Eyes -->
  <circle cx="88" cy="92" r="4" fill="black" />
  <circle cx="112" cy="92" r="4" fill="black" />
  <circle cx="89" cy="90" r="1.5" fill="white" />
  <circle cx="113" cy="90" r="1.5" fill="white" />
  
  <!-- Nose -->
  <ellipse cx="100" cy="105" rx="3" ry="2" fill="#ec4899" />
  
  <!-- Mouth -->
  <path d="M 100 108 Q 95 112 92 108" stroke="black" stroke-width="1.5" fill="none" stroke-linecap="round" />
  <path d="M 100 108 Q 105 112 108 108" stroke="black" stroke-width="1.5" fill="none" stroke-linecap="round" />
  
  <!-- Whiskers -->
  <line x1="70" y1="100" x2="85" y2="98" stroke="black" stroke-width="1" stroke-linecap="round" />
  <line x1="70" y1="105" x2="85" y2="105" stroke="black" stroke-width="1" stroke-linecap="round" />
  <line x1="115" y1="98" x2="130" y2="100" stroke="black" stroke-width="1" stroke-linecap="round" />
  <line x1="115" y1="105" x2="130" y2="105" stroke="black" stroke-width="1" stroke-linecap="round" />
  
  <!-- Cheeks -->
  <circle cx="72" cy="108" r="8" fill="#fbb6ce" opacity="0.6" />
  <circle cx="128" cy="108" r="8" fill="#fbb6ce" opacity="0.6" />
</svg>