<svg width="192" height="192" viewBox="0 0 192 192" xmlns="http://www.w3.org/2000/svg">
  <defs>
    <linearGradient id="gradient" x1="0%" y1="0%" x2="100%" y2="100%">
      <stop offset="0%" style="stop-color:#ec4899;stop-opacity:1" />
      <stop offset="100%" style="stop-color:#9333ea;stop-opacity:1" />
    </linearGradient>
  </defs>
  
  <!-- Background circle -->
  <circle cx="96" cy="96" r="80" fill="url(#gradient)" />
  
  <!-- Rabbit ears -->
  <ellipse cx="70" cy="55" rx="8" ry="25" fill="white" transform="rotate(-20 70 55)" />
  <ellipse cx="122" cy="55" rx="8" ry="25" fill="white" transform="rotate(20 122 55)" />
  
  <!-- Inner ears -->
  <ellipse cx="70" cy="55" rx="4" ry="16" fill="#fbb6ce" transform="rotate(-20 70 55)" />
  <ellipse cx="122" cy="55" rx="4" ry="16" fill="#fbb6ce" transform="rotate(20 122 55)" />
  
  <!-- Head -->
  <circle cx="96" cy="96" r="35" fill="white" />
  
  <!-- Eyes -->
  <circle cx="84" cy="88" r="4" fill="black" />
  <circle cx="108" cy="88" r="4" fill="black" />
  <circle cx="85" cy="85" r="1.5" fill="white" />
  <circle cx="109" cy="85" r="1.5" fill="white" />
  
  <!-- Nose -->
  <ellipse cx="96" cy="102" rx="3" ry="2" fill="#ec4899" />
  
  <!-- Mouth -->
  <path d="M 96 105 Q 90 110 86 105" stroke="black" stroke-width="1.5" fill="none" stroke-linecap="round" />
  <path d="M 96 105 Q 102 110 106 105" stroke="black" stroke-width="1.5" fill="none" stroke-linecap="round" />
  
  <!-- Whiskers -->
  <line x1="65" y1="96" x2="78" y2="95" stroke="black" stroke-width="1.2" stroke-linecap="round" />
  <line x1="65" y1="102" x2="78" y2="102" stroke="black" stroke-width="1.2" stroke-linecap="round" />
  <line x1="114" y1="95" x2="127" y2="96" stroke="black" stroke-width="1.2" stroke-linecap="round" />
  <line x1="114" y1="102" x2="127" y2="102" stroke="black" stroke-width="1.2" stroke-linecap="round" />
  
  <!-- Cheeks -->
  <circle cx="65" cy="110" r="8" fill="#fbb6ce" opacity="0.6" />
  <circle cx="127" cy="110" r="8" fill="#fbb6ce" opacity="0.6" />
</svg>