<?xml version="1.0" encoding="UTF-8"?>
<svg width="32" height="32" viewBox="0 0 32 32" xmlns="http://www.w3.org/2000/svg">
  <defs>
    <linearGradient id="rabbitGradient" x1="0%" y1="0%" x2="100%" y2="100%">
      <stop offset="0%" style="stop-color:#ec4899;stop-opacity:1" />
      <stop offset="100%" style="stop-color:#9333ea;stop-opacity:1" />
    </linearGradient>
  </defs>
  
  <!-- Background circle -->
  <circle cx="16" cy="16" r="15" fill="url(#rabbitGradient)" stroke="white" stroke-width="1"/>
  
  <!-- Rabbit ears -->
  <ellipse cx="12" cy="10" rx="2" ry="5" fill="white" transform="rotate(-15 12 10)" />
  <ellipse cx="20" cy="10" rx="2" ry="5" fill="white" transform="rotate(15 20 10)" />
  
  <!-- Inner ears -->
  <ellipse cx="12" cy="10" rx="1" ry="3" fill="#fbb6ce" transform="rotate(-15 12 10)" />
  <ellipse cx="20" cy="10" rx="1" ry="3" fill="#fbb6ce" transform="rotate(15 20 10)" />
  
  <!-- Head -->
  <circle cx="16" cy="16" r="7" fill="white" />
  
  <!-- Eyes -->
  <circle cx="14" cy="14" r="1" fill="black" />
  <circle cx="18" cy="14" r="1" fill="black" />
  <circle cx="14.3" cy="13.5" r="0.3" fill="white" />
  <circle cx="18.3" cy="13.5" r="0.3" fill="white" />
  
  <!-- Nose -->
  <ellipse cx="16" cy="17" rx="0.8" ry="0.6" fill="#ec4899" />
  
  <!-- Mouth -->
  <path d="M 16 17.5 Q 14.5 19 13.5 17.5" stroke="black" stroke-width="0.4" fill="none" stroke-linecap="round" />
  <path d="M 16 17.5 Q 17.5 19 18.5 17.5" stroke="black" stroke-width="0.4" fill="none" stroke-linecap="round" />
</svg>